<svg xmlns="http://www.w3.org/2000/svg" viewBox="0 0 324.74 251.07"><defs><style>.cls-1{fill:#f2f2f2;}.cls-2{fill:#fff;}.cls-3{fill:#f97560;}.cls-4{fill:#fcd400;}.cls-5{fill:#2ac28b;}.cls-6{fill:#ff9ba5;}.cls-7{fill:#ebe8e5;}.cls-8{fill:#eaf3f3;}.cls-9{fill:#91d5dd;}.cls-10{fill:#3b3b3b;}.cls-11{fill:#fc6e47;}.cls-12{fill:#e2b420;}.cls-13{fill:#ccc9c6;}.cls-14{fill:#f7eadc;}.cls-15{fill:#c44538;}</style></defs><g id="Layer_2" data-name="Layer 2"><g id="Layer_1-2" data-name="Layer 1"><g id="Master_Stickers_App" data-name="Master/Stickers/App"><g id="app"><g id="stickers_expanded" data-name="stickers expanded"><path id="Path" class="cls-1" d="M291.67,182.91c-.19-14.56-1.22-29.39-2.21-43.73-.8-11.46-1.62-23.32-2-35L287.29,99c-.37-11.36-.74-23.1-1.85-34.37-.57-5.81-1.63-16.62-8-21.53-4.12-3.16-8.72-3.1-13.17-3h-1.52c-12.13,0-33.43,1-44.1,1.63-11.87.65-19.38,1-25.34,1.34-12.5.63-18.2.92-43.1,2.65-7.28.51-14.7.89-21.88,1.26-8.3.43-16.89.88-25.32,1.52-10.23.77-25.55,2-36.61,2.87A13,13,0,0,0,54.4,65c.87,15.29,2.42,42.78,3.09,54.35.89,15.47,2.46,32.35,4.8,51.61a196.34,196.34,0,0,1,1.56,23.5c0,5.24.42,8.58,1.22,10.51,2.72,6.55,9.43,8,14.24,8.49A99.28,99.28,0,0,0,89.8,214c5.59,0,11.32-.33,16.92-.65,3.71-.22,7.21-.42,10.65-.53,12-.38,24.08-1.21,35.8-2,8.15-.56,16.57-1.13,24.86-1.55,7.1-.36,16.23-1.3,25.05-2.2,9.27-.95,18.86-1.93,25.92-2.22,4.62-.19,9.21-.6,13.66-1,4.85-.43,9.86-.88,14.81-1l2-.06c8.19-.22,19.4-.51,26.24-4.53C291.82,194.62,291.75,188.67,291.67,182.91Z"/><path id="Path-2" data-name="Path" class="cls-2" d="M67.81,74.19a2,2,0,0,1,0-4c16.41-.18,40.5-1.19,64.44-2.73,11.1-.71,27.83-1.6,45.55-2.54,24.63-1.31,50.11-2.66,62.83-3.66,6.62-.53,23-1.75,29.34-2.14a2,2,0,1,1,.24,4c-6.34.38-22.66,1.6-29.27,2.12-12.77,1-38.27,2.36-62.93,3.68-17.7.94-34.43,1.83-45.51,2.54C108.5,73,84.33,74,67.85,74.19Z"/><path id="Path-3" data-name="Path" class="cls-3" d="M67.82,64.37a2,2,0,0,1-2-1.93v-.7a2,2,0,1,1,4-.15v.71a1.94,1.94,0,0,1-.54,1.43,2,2,0,0,1-1.39.64Z"/><path id="Path-4" data-name="Path" class="cls-4" d="M77.91,63.52a2,2,0,0,1-2-1.93v-.71a2,2,0,1,1,4-.14v.71a1.94,1.94,0,0,1-.54,1.43,2,2,0,0,1-1.39.64Z"/><path id="Path-5" data-name="Path" class="cls-5" d="M88,62.66a2,2,0,0,1-2-1.93V60a2,2,0,1,1,4-.13v.71a2,2,0,0,1-1.93,2.06Z"/><path id="Path-6" data-name="Path" class="cls-6" d="M314.84,49.43h-3a36.56,36.56,0,0,0-.64-5,2,2,0,0,0-1.34-1.49,2,2,0,0,0-2.58,2.31,30,30,0,0,1,.54,4.23h-3.56a2,2,0,0,0,0,4h3.48a8.75,8.75,0,0,1-.64,2.46,2.05,2.05,0,0,0-.06,1.54,2,2,0,0,0,3.72.16,13.33,13.33,0,0,0,1.05-4.16h3.11a2,2,0,0,0,0-4Z"/><path id="Path-7" data-name="Path" class="cls-7" d="M285.53,21.21h-2.84a2,2,0,0,1,0-4h2.84a2,2,0,0,1,0,4Z"/><path id="Path-8" data-name="Path" class="cls-7" d="M298.88,20.79h-2.81a2,2,0,0,1,0-4h2.83a2,2,0,0,1,0,4Z"/><path id="Path-9" data-name="Path" class="cls-7" d="M291.07,15.54a2,2,0,0,1-2-2V10.7a2,2,0,1,1,4,0v2.84A2,2,0,0,1,291.07,15.54Z"/><path id="Path-10" data-name="Path" class="cls-7" d="M291.07,29a2,2,0,0,1-2-2V24.2a2,2,0,1,1,4,0V27A2,2,0,0,1,291.07,29Z"/><path id="Path-11" data-name="Path" class="cls-4" d="M227.56,7a2,2,0,0,0-2.26-.81c-.35.06-1.31.15-2.54.24a25.58,25.58,0,0,0-.93-4.92,2,2,0,0,0-3.44-.8,2,2,0,0,0-.36,2,21.79,21.79,0,0,1,.74,3.93c-1.55.08-3.08.14-4.24.15a2,2,0,1,0,0,4h0s2.08,0,4.49-.15c.08,2.18,0,3.88,0,3.91a2,2,0,0,0,2,2h0a2,2,0,0,0,2-1.95V10.35a13.24,13.24,0,0,0,4-.65A2,2,0,0,0,227.56,7Z"/><path id="Path-12" data-name="Path" class="cls-8" d="M33.45,50.14a2,2,0,0,0-.86-1.27,2,2,0,0,0-1.5-.29l-3.38.64A20,20,0,0,0,27,45.39a2,2,0,0,0-3.68-.08,2,2,0,0,0,0,1.53,24.31,24.31,0,0,1,.53,3.07L19,50.69a2,2,0,0,0,.3,4,1.61,1.61,0,0,0,.31,0c.16,0,2.13-.33,4.64-.75a1.79,1.79,0,0,0,.06.58c.17,1.57.21,1.94.27,2.18a2,2,0,0,0,2,1.59H27a2,2,0,0,0,1.51-2.37c0-.22-.11-.89-.2-1.78a7.42,7.42,0,0,0-.1-.84c1.3-.23,2.58-.48,3.71-.7a2,2,0,0,0,1.28-.91A2,2,0,0,0,33.45,50.14Z"/><path id="Path-13" data-name="Path" class="cls-9" d="M63.52,19.29a2,2,0,0,1-2-2V13.74a2,2,0,1,1,4,0v3.55A2,2,0,0,1,63.52,19.29Z"/><path id="Path-14" data-name="Path" class="cls-9" d="M63.52,31.35a2,2,0,0,1-2-2V26.51a2,2,0,1,1,4,0v2.84A2,2,0,0,1,63.52,31.35Z"/><path id="Path-15" data-name="Path" class="cls-9" d="M53.58,25a2,2,0,1,1-.33-4l4.26-.71a2,2,0,0,1,.66,3.94L53.91,25A1.91,1.91,0,0,1,53.58,25Z"/><path id="Path-16" data-name="Path" class="cls-9" d="M68.75,24.1a2,2,0,1,1-.19-4l4.3-.4a2,2,0,0,1,.38,4l-4.3.41Z"/><path id="Path-17" data-name="Path" class="cls-10" d="M242.67,152.13l-2.52-12.5s7.09,5,9.54,7.77C250.07,147.78,242.67,152.13,242.67,152.13Z"/><path id="Shape" class="cls-10" d="M242.67,153.63a1.42,1.42,0,0,1-.61-.13,1.48,1.48,0,0,1-.86-1.07l-2.52-12.5a1.5,1.5,0,0,1,2.33-1.52c.29.21,7.26,5.12,9.81,8a1.62,1.62,0,0,1,.37,1.27c-.12.74-.2,1.27-7.76,5.74a1.45,1.45,0,0,1-.76.21Zm-.29-10.5,1.34,6.62c1.46-.89,2.87-1.79,3.79-2.42a64.32,64.32,0,0,0-5.13-4.2Z"/><path id="Path-18" data-name="Path" class="cls-10" d="M250.35,157.36a2,2,0,0,1-1.65-.87L242,146.65a2,2,0,0,1,3.3-2.26l6.75,9.83a2,2,0,0,1-1.65,3.14Z"/></g></g></g><g id="Master_Stickers_Pencil_1" data-name="Master/Stickers/Pencil 1"><g id="pencil-1"><g id="stickers_expanded-2" data-name="stickers expanded"><path id="Path-19" data-name="Path" class="cls-4" d="M85,151.57a7.67,7.67,0,0,1-1.39-.64h0a18.74,18.74,0,0,1-4.73-4.53,79.73,79.73,0,0,1-4.65-6.63,28.7,28.7,0,0,1-2.5-5.49.61.61,0,0,0-.54-.38,1.21,1.21,0,0,0-.83.22h0c-.27.18-26.83,17.62-32.09,20.79-4.71,2.84-9.36,5.84-13.85,8.75l-.75.49a1.13,1.13,0,0,0-.57.89c-.15,4.35,1.25,8,2.6,11.49a13.86,13.86,0,0,0,3.87,5.18c.25.23.51.52.8.82a7.59,7.59,0,0,0,3.45,2.54l.68.23a1.23,1.23,0,0,0,1.05-.22c10.18-7.22,23.42-15.61,36.21-23.72,4.57-2.89,8.89-5.63,13.06-8.31h0a1.23,1.23,0,0,0,.57-.8.57.57,0,0,0-.39-.64Z"/><path id="Path-20" data-name="Path" class="cls-11" d="M8.1,175.79A1.22,1.22,0,0,0,7,176a21.77,21.77,0,0,0-5.47,6.14C-.22,185.27-.49,188.51.81,191a11.66,11.66,0,0,0,9,6.34,11.79,11.79,0,0,0,7.3-1.79l.05,0a1.27,1.27,0,0,0,.56-.75.58.58,0,0,0-.28-.66,6.27,6.27,0,0,1-.59-.42l0-.07h0a17.91,17.91,0,0,1-3.85-4.87l-.67-1a21.36,21.36,0,0,1-3-6.24c-.06-.27-.15-.56-.24-.88a9.45,9.45,0,0,1-.53-4.1A.6.6,0,0,0,8.1,175.79Z"/><path id="Path-21" data-name="Path" class="cls-12" d="M72.53,139.47h0c-.19.12-4.66,2.94-6.65,4.1-2.72,1.59-7.62,4.72-12.36,7.74-3.48,2.22-6.77,4.31-8.79,5.54-4.76,2.89-9.39,5.92-14.14,9.25-2.13,1.49-5.57,3.71-5.72,3.8a.94.94,0,0,1-1.31-.05c-.23-.35,0-.89.48-1.22,0,0,3.55-2.28,5.6-3.72,4.81-3.37,9.49-6.43,14.32-9.36,2-1.22,5.28-3.31,8.74-5.52,4.77-3,9.7-6.18,12.47-7.8,1.92-1.13,6.51-4,6.55-4,.5-.33,1.08-.31,1.31,0s0,.9-.48,1.22Z"/><path id="Path-22" data-name="Path" class="cls-12" d="M42.06,173.55c-1,.63-1.94,1.27-2.94,1.85-1.79,1.08-5.26,3.21-8.34,5.33a1,1,0,0,1-1.33,0,.62.62,0,0,1-.05-.61,1.3,1.3,0,0,1,.49-.61c3.15-2.17,6.66-4.33,8.49-5.43,3.14-1.89,6.21-4,9.19-6.14,2.17-1.52,4.41-3.1,6.67-4.57,7.8-5.07,15.44-10.5,23.22-16.09a1.25,1.25,0,0,1,1-.27.58.58,0,0,1,.48.61,1.17,1.17,0,0,1-.56.85c-7.8,5.62-15.48,11.07-23.34,16.17-2.21,1.45-4.43,3-6.58,4.51S44.25,172.11,42.06,173.55Z"/><path id="Path-23" data-name="Path" class="cls-7" d="M25,164.53a.56.56,0,0,0-.43-.59,1.23,1.23,0,0,0-1,.19c-1.59,1-3.18,2.08-4.79,3.09-1.24.81-2.49,1.63-3.69,2.45s-2.37,1.6-3.56,2.37c-.24.15-.51.33-.84.51a12.58,12.58,0,0,0-3.54,2.7c-1.35,1.81-.63,4.35-.11,6.21.08.31.16.59.22.84a22.26,22.26,0,0,0,3.17,6.58l.67,1a18.87,18.87,0,0,0,4.1,5.15l.08.07a3.21,3.21,0,0,0,2.13.89c1.75-.05,4-1.36,6-2.62l1.35-.89,1.2-.78c2.41-1.54,4.25-2.78,5.94-4,1.11-.82,2.3-1.68,3.64-2.63a1.16,1.16,0,0,0,.52-.8.56.56,0,0,0-.4-.62l-.72-.25-.1,0c-1-.21-2-1.29-2.81-2.18-.3-.32-.57-.62-.84-.87a12.77,12.77,0,0,1-3.61-4.78C26.23,172.13,24.88,168.62,25,164.53Z"/><path id="Path-24" data-name="Path" class="cls-13" d="M19.31,192.07h0A1,1,0,0,1,18,192l-.23-.36a.76.76,0,0,1,.1-.85,1.46,1.46,0,0,1,.9-.57.74.74,0,0,1,.8.27l.24.36A1,1,0,0,1,19.31,192.07Z"/><path id="Path-25" data-name="Path" class="cls-13" d="M15.81,188.16l-.14.09a1.14,1.14,0,0,1-.75.13.58.58,0,0,1-.47-.36.76.76,0,0,0-.41-.47c-.41-.2-.44-.71-.08-1.15a1.3,1.3,0,0,1,1.4-.44,2,2,0,0,1,1,1.1,1,1,0,0,1-.51,1.1Z"/><path id="Path-26" data-name="Path" class="cls-13" d="M12.92,183.52a1,1,0,0,1-1.25,0,1.93,1.93,0,0,1-.55-1.37,1.31,1.31,0,0,1,1-1.09c.55-.14,1,.11,1,.57a.8.8,0,0,0,.24.57.59.59,0,0,1,.14.59,1.15,1.15,0,0,1-.44.64Z"/><path id="Path-27" data-name="Path" class="cls-13" d="M10.79,178.38a1.06,1.06,0,0,1-1.18.09.76.76,0,0,1-.32-.78,1.45,1.45,0,0,1,.54-.83,1.12,1.12,0,0,1,1.35.1,1,1,0,0,1-.18,1.26,1.66,1.66,0,0,1-.21.16Z"/><path id="Path-28" data-name="Path" class="cls-13" d="M22.3,174.18h0a1.33,1.33,0,0,1-.75.22.69.69,0,0,1-.55-.29l-.08-.12a.64.64,0,0,1,0-.63,1.3,1.3,0,0,1,.53-.59c.5-.32,1.08-.29,1.3.07l.08.12a.64.64,0,0,1,0,.62A1.35,1.35,0,0,1,22.3,174.18Z"/><path id="Path-29" data-name="Path" class="cls-13" d="M25.05,179.62a1.64,1.64,0,0,1-.22.14,1.46,1.46,0,0,1-1.62-1.06,1.39,1.39,0,0,1,1.16-1,1.06,1.06,0,0,1,1.24.85,1.09,1.09,0,0,1-.56,1Z"/><path id="Path-30" data-name="Path" class="cls-13" d="M28,184h0a1.36,1.36,0,0,1-.76.22.67.67,0,0,1-.55-.28l-.4-.62c-.23-.36,0-.91.5-1.22a.94.94,0,0,1,1.3.06l.4.62a.69.69,0,0,1,0,.63A1.39,1.39,0,0,1,28,184Z"/><path id="Path-31" data-name="Path" class="cls-13" d="M30.82,186.81h0a1,1,0,0,1-1.31-.06l-.16-.25c-.22-.35,0-.9.5-1.22a1,1,0,0,1,1.3.07l.16.25a.67.67,0,0,1,0,.62,1.33,1.33,0,0,1-.52.59Z"/><path id="Path-32" data-name="Path" class="cls-13" d="M21.13,169.84h0a1.38,1.38,0,0,1-.76.22.69.69,0,0,1-.55-.29l-.08-.13c-.22-.35,0-.9.51-1.22a1,1,0,0,1,1.3.07l.08.13a.7.7,0,0,1,0,.62,1.48,1.48,0,0,1-.52.6Z"/><path id="Path-33" data-name="Path" class="cls-14" d="M98.94,129.41c-1.25-1.11-3.91-.63-6.27-.2l-1.37.24a146.81,146.81,0,0,0-20.59,4.47,1.47,1.47,0,0,0-.77.54.79.79,0,0,0-.15.75,29.33,29.33,0,0,0,2.62,5.72,71.69,71.69,0,0,0,4.71,6.71,19.47,19.47,0,0,0,5,4.8,3,3,0,0,0,2.51.5,3.15,3.15,0,0,0,.89-.42,8.92,8.92,0,0,0,1.95-2c.37-.47.76-1,1.22-1.47,6-6.66,9.54-12.22,10.72-17a2.51,2.51,0,0,0-.49-2.64Z"/><path id="Path-34" data-name="Path" class="cls-10" d="M98.94,129.41c-1.25-1.11-3.91-.63-6.27-.2l-1.37.24c-1,.15-2,.3-3,.48a1.5,1.5,0,0,0-.9.55.77.77,0,0,0-.13.85c.45.83.84,1.7,1.26,2.62,1.08,2.4,2.2,4.9,4.48,6.55a5.6,5.6,0,0,0,.94.57,1,1,0,0,0,.79,0,1.11,1.11,0,0,0,.29-.14,1.46,1.46,0,0,0,.38-.41,28.58,28.58,0,0,0,4-8.48,2.52,2.52,0,0,0-.48-2.63Z"/></g></g></g><g id="Master_Stickers_Calendar" data-name="Master/Stickers/Calendar"><g id="calendar"><g id="stickers_expanded-3" data-name="stickers expanded"><path id="Path-35" data-name="Path" class="cls-1" d="M322.47,200.81c-.25-1.92-.45-3.53-.57-4.56-.51-4.23-1.08-8.5-1.64-12.63l-.39-2.9c-.82-6.09-3.38-18.49-3.41-18.62a.82.82,0,0,0-.82-.65c-.2,0-5,.1-7.15.24-6.92.47-13.83,1.07-20.52,1.64-5.2.45-10.57.91-15.9,1.31l-.77.07c-6.26.47-14,1-20,2.37a.82.82,0,0,0-.63.72c-.13,1.2,0,7.9.11,10.08.12,2.4.29,4.88.45,7.29.16,2.22.32,4.51.43,6.74s.24,4.56.35,6.85c.33,6.64.66,13.5,1.23,20.18,0,.37.06,1,.1,1.7.21,3.53.35,5.33.61,5.93a.83.83,0,0,0,.76.5c9.56,0,17.74-.15,26.59-.9,1.38-.11,4.22-.36,7.24-.63l10.29-.89c6.06-.47,23-2.54,25.28-3a.83.83,0,0,0,.67-.82C324.65,218,323.34,207.65,322.47,200.81Z"/><path id="Path-36" data-name="Path" class="cls-11" d="M319.58,178.66c-1-6.43-3.08-16.45-3.1-16.56a.83.83,0,0,0-.82-.65c-.21,0-5,.1-7.15.24-6.93.47-13.84,1.07-20.53,1.64-5.2.45-10.57.91-15.9,1.31l-.68.06c-3.79.28-8.08.61-12.21,1.1a.83.83,0,0,0-.72.89l0,.47c.17,2.63.45,5.39.72,8.06.1,1,.2,1.92.29,2.87.17,1.73.34,3.59.51,5.69a.83.83,0,0,0,.82.76h0c.79,0,1.59-.09,2.38-.15.59,0,1.18-.09,1.75-.11.75,0,2.89-.21,5.86-.43,6.7-.52,16.83-1.3,21.5-1.44,2.63-.07,12.24-.95,15.85-1.27l.85-.08a96.46,96.46,0,0,0,9.88-1.48.83.83,0,0,0,.62-.92Z"/><path id="Path-37" data-name="Path" class="cls-10" d="M263.33,226.88a.82.82,0,0,1-.82-.79c-.31-7.73-.76-17.62-1.49-25.62-.31-3.4-.57-6.83-.82-10.16-.31-4-.63-8.12-1-12.21l-.2-1.95c-.31-3.15-.63-6.4-.82-9.33a.83.83,0,0,1,.77-.87.81.81,0,0,1,.87.77c.18,2.9.5,6.14.82,9.27l.2,1.95c.41,4.1.72,8.24,1,12.24.26,3.32.53,6.75.82,10.14.74,8,1.19,18,1.5,25.71a.82.82,0,0,1-.78.85Z"/><path id="Path-38" data-name="Path" class="cls-15" d="M271.77,177.56h0a.84.84,0,0,1-.79-.86,47,47,0,0,0-.51-5.94.83.83,0,1,1,1.64-.24,48.06,48.06,0,0,1,.53,6.24A.82.82,0,0,1,271.77,177.56Z"/><path id="Path-39" data-name="Path" class="cls-15" d="M306,175.1a.82.82,0,0,1-.82-.82,41.45,41.45,0,0,0-.7-6.19.8.8,0,0,1,.65-1,.82.82,0,0,1,1,.65,42.57,42.57,0,0,1,.73,6.47.81.81,0,0,1-.23.59A.83.83,0,0,1,306,175.1Z"/><path id="Path-40" data-name="Path" class="cls-13" d="M272.36,174.49a.82.82,0,1,1-.13-1.64,4.33,4.33,0,0,0,3.22-2.58,9.16,9.16,0,0,0-.58-6.7,4.22,4.22,0,0,0-2.63-2.3,3.54,3.54,0,0,0-4,2.56.83.83,0,0,1-1,.52.82.82,0,0,1-.51-1,5.17,5.17,0,0,1,5.9-3.64,6,6,0,0,1,3.75,3.19,10.81,10.81,0,0,1,.63,8,5.93,5.93,0,0,1-4.48,3.62l-.14,0Z"/><path id="Path-41" data-name="Path" class="cls-13" d="M306.51,172.07a.82.82,0,0,1-.87-.76.83.83,0,0,1,.76-.88,4.31,4.31,0,0,0,3.28-2.66,8.17,8.17,0,0,0-.51-6.28,4.35,4.35,0,0,0-2.94-2.35c-1.47-.16-2.92,0-3.69,2a.82.82,0,0,1-.64.52.8.8,0,0,1-.76-.3.81.81,0,0,1-.13-.81,4.68,4.68,0,0,1,5.4-3,6,6,0,0,1,4.22,3.24,9.71,9.71,0,0,1,.6,7.58,6,6,0,0,1-4.61,3.73Z"/><path id="Path-42" data-name="Path" class="cls-10" d="M260.05,226.84a.83.83,0,0,1-.82-.77l-1-16.76a.83.83,0,0,1,.77-.87.82.82,0,0,1,.87.77l1,16.76a.82.82,0,0,1-.76.87Z"/><path id="Path-43" data-name="Path" class="cls-10" d="M256.62,226.78a.82.82,0,0,1-.82-.76c0-.12-.78-11.38-1.09-14.85-.34-3.88-1.36-18.39-1.36-18.53a.81.81,0,0,1,.19-.6.84.84,0,0,1,.56-.28.77.77,0,0,1,.6.2.76.76,0,0,1,.28.56c0,.15,1,14.64,1.36,18.5.31,3.49,1.09,14.77,1.1,14.88a.83.83,0,0,1-.77.88Z"/><path id="Path-44" data-name="Path" class="cls-10" d="M254.06,175.2a.82.82,0,0,1-.82-.76l-.45-6.31a.82.82,0,0,1,.36-.74.8.8,0,0,1,.82-.06.83.83,0,0,1,.46.68l.45,6.32a.82.82,0,0,1-.76.87Z"/><path id="Path-45" data-name="Path" class="cls-10" d="M257.88,189.47a.81.81,0,0,1-.82-.77c-.11-1.61-.25-3.24-.39-4.82s-.29-3.23-.41-4.86c-.29-4.51-.62-8.1-1-11.29a.86.86,0,0,1,.32-.76.84.84,0,0,1,.82-.11.85.85,0,0,1,.5.66c.41,3.23.75,6.84,1.05,11.39.1,1.61.24,3.24.38,4.82s.29,3.23.41,4.87a.82.82,0,0,1-.76.87Z"/><path id="Path-46" data-name="Path" class="cls-10" d="M302.19,213.6c-2.38.17-4.71.37-7,.56a.24.24,0,0,0,0-.12c0-.06-.45-5.93-.76-10.16-.08-1.19-.21-2.41-.34-3.58-.16-1.45-.33-2.94-.41-4.39-.1-1.92-.71-5.63-.73-5.79a.82.82,0,0,0-1.39-.45c-.22.22-5.54,5.42-7.49,8.38a.82.82,0,0,0,.25,1.11.81.81,0,0,0,1.11-.21,62.47,62.47,0,0,1,6.15-7c.18,1.25.41,2.95.47,4,.07,1.5.24,3,.41,4.49.12,1.16.26,2.36.34,3.52.3,4.23.76,10.11.76,10.17a.68.68,0,0,0,0,.14h0c-2.58.23-5.25.46-7.94.66a.8.8,0,0,0-.79.84.82.82,0,0,0,.84.8h.06c2.71-.2,5.39-.44,8-.66,2.77-.25,5.65-.5,8.61-.71a.83.83,0,0,0,.48-1.45A.83.83,0,0,0,302.19,213.6Z"/></g></g></g><g id="Master_Stickers_Book" data-name="Master/Stickers/Book"><g id="book"><g id="stickers_expanded-4" data-name="stickers expanded"><path id="Path-47" data-name="Path" class="cls-15" d="M148.46,196.93a.65.65,0,0,0-.49-.23,120.66,120.66,0,0,0-18,2.16c-5.36,1.14-15.45,3.93-20.82,6.28a25.18,25.18,0,0,0-5.62-3.08,86,86,0,0,0-14.44-3.81l-2.19-.39a40.75,40.75,0,0,0-11.19-1,.67.67,0,0,0-.59.62s-.3,4.6-.47,6.83c0,.67-.14,1.83-.26,3.33-.44,5.59-1.27,16-1.38,19.55,0,1.28-.08,2.6-.13,3.93-.15,4.33-.32,8.8-.22,12.88a.65.65,0,0,0,.6.64c8.89.73,17.6,1.61,26.46,4.39,1.2.37,5.58,1.94,5.69,2l.11,0h.18c3.89-.45,7.27-1,10.84-1.53,2.75-.42,5.58-.86,8.65-1.26a150.18,150.18,0,0,1,17-.94.66.66,0,0,0,.67-.6c.32-3.11.64-5.65,1-8.09.43-3.33.84-6.48,1.17-10.75.21-2.82.77-6.76,1.32-10.58.36-2.54.71-4.95.92-6.85.11-1,.21-2.06.33-3.33.23-2.66.53-5.94,1.07-9.65A.67.67,0,0,0,148.46,196.93Z"/><path id="Path-48" data-name="Path" class="cls-1" d="M145.27,195.92a7.5,7.5,0,0,0-1.42.05c.38-2.1.77-4.36.77-4.39a.67.67,0,0,0-.11-.5.62.62,0,0,0-.42-.28c-.07,0-1.44-.25-2.65-.33.18-1,.33-2.07.43-3.06a.68.68,0,0,0-.17-.53.65.65,0,0,0-.51-.2,48,48,0,0,0-11.67,2.62c-.79.26-1.53.54-2.26.84,0-2,0-3.93,0-5.88a.63.63,0,0,0-.27-.52.59.59,0,0,0-.57-.1c-4.64,1.43-10.92,4.24-14.49,9.54a20.81,20.81,0,0,0-3.18,7.22,28.47,28.47,0,0,0-9.36-7.83A61.19,61.19,0,0,0,91,189a25.65,25.65,0,0,0-4.59-1,.64.64,0,0,0-.69.54c-.18.93-.37,2-.57,3.06-1.07-.07-2.17-.12-3.29-.12a.66.66,0,0,0-.64.63c-.1,1.46-.33,2.95-.56,4.4-1.12,0-2.25,0-3.38.07l-.22,0a.9.9,0,0,0-.71.26,1,1,0,0,0-.32.7c-1,15.69-2,29-2,44.42a.91.91,0,0,0,.68.92.4.4,0,0,0,.34.15,55.66,55.66,0,0,1,8.25.79c1.34.21,2.68.42,4,.6a37.33,37.33,0,0,1,3.95.63c1.22.3,4.79,1.15,6.08,1.48s3.93,1.31,5.2,1.72c.62.19,1.25.4,1.86.64.26.11.73.27,1.13.4a1,1,0,0,0,.42,0,.51.51,0,0,0,.17,0l.17,0,.47-.16c.41-.1.8-.22,1-.27,1-.25,3.48-.73,5.11-1.1,2.29-.5,6.26-1.06,10.33-1.53,5-.57,9.3-.87,14.51-1a7.24,7.24,0,0,0,2-.12,1.57,1.57,0,0,0,1-.64,2.14,2.14,0,0,0,.25-1,4.4,4.4,0,0,1,0-.51c.07-.33.13-.65.18-1s.82-7.18,1-9.17q1-8.39,1.92-16.77l2.17-19.08A1,1,0,0,0,145.27,195.92Z"/><path id="Path-49" data-name="Path" class="cls-7" d="M144.56,195.94a.63.63,0,0,0-.48.1.68.68,0,0,0-.27.43c-.19,1.07-.35,1.88-.46,2.42-.58,2.84-1.65,12.74-2.28,18.66-.21,1.91-.38,3.49-.49,4.41-.44,3.79-.74,7.52-1.05,11.65-.17,2.14-1,7.38-1,7.6h-.1c-1.62,0-4.6.09-6.53.27a78.21,78.21,0,0,0-8.74,1.15l-2,.44-.09,0a88.93,88.93,0,0,0-13,4.15c3.59-3,8.09-4.45,12.48-5.9,1.59-.52,3.24-1.06,4.81-1.66a14.25,14.25,0,0,1,3.17-.77l1-.18a41.65,41.65,0,0,1,6.3-.64.64.64,0,0,0,.62-.61s.48-6.25.67-8.76c.3-3.72,1.55-13.24,2.47-20.18.46-3.49.83-6.24.91-7,.09-1,.41-3.15.72-5.21.27-1.74.51-3.37.61-4.26a.66.66,0,0,0-.57-.74.65.65,0,0,0-.72.59c-.1.86-.34,2.48-.6,4.2-.32,2.08-.65,4.23-.74,5.29-.07.77-.44,3.51-.89,7-.93,7-2.19,16.5-2.48,20.26-.16,2-.5,6.55-.63,8.17a40.3,40.3,0,0,0-5.89.62l-1,.18a15.06,15.06,0,0,0-3.43.83c-1.54.6-3.17,1.13-4.74,1.66-4,1.31-8,2.64-11.48,5A38,38,0,0,1,112.3,241c4.36-4.57,11.9-6.58,14.11-7.09a.66.66,0,0,0,.5-.67c0-2.22.29-8,.46-10.52.34-4.78,1.34-24.05,1.3-31.24a.66.66,0,0,0-.65-.67h0a.66.66,0,0,0-.65.67c0,7.16-1,26.37-1.29,31.14-.17,2.33-.45,7.55-.46,10.1-2.78.69-9.93,2.82-14.24,7.33a31.36,31.36,0,0,0-4.79,5.94c.15-3.91.48-13,.6-18.13s.48-12.55.76-17.79c.11-2.09.57-6.47.89-8.37a.65.65,0,0,0-.22-.64.64.64,0,0,0-.65-.12.68.68,0,0,0-.41.54c-.32,1.94-.79,6.4-.9,8.52-.28,5.25-.65,12.6-.76,17.83-.13,5.41-.49,15.12-.62,18.66a32.2,32.2,0,0,0-7.38-5.66,61.91,61.91,0,0,0-9.27-4.41,22.85,22.85,0,0,0-6.61-1.5c0-1.57.12-3,.22-4.29.37-4.36.6-8.81.83-13.12.12-2.18.24-4.43.38-6.65.25-4.18.8-8.46,1.33-12.61.25-1.92.51-3.92.72-5.85a.65.65,0,1,0-1.29-.15c-.22,1.92-.47,3.91-.72,5.83-.53,4.16-1.09,8.47-1.34,12.69-.14,2.22-.26,4.48-.38,6.66-.23,4.3-.47,8.74-.82,13.08-.13,1.48-.21,3.17-.26,5a.71.71,0,0,0,.19.48.63.63,0,0,0,.46.2,20.4,20.4,0,0,1,6.85,1.44,61,61,0,0,1,9.06,4.3,30.14,30.14,0,0,1,7.26,5.63c-1.62-.67-3.23-1.46-4.83-2.22s-3-1.44-4.55-2.09l-2.5-1.09c-4.77-2.1-9.92-2.64-14.45-3.11L77,238.92c.2-8.52.9-16.22,1.72-24.69.15-1.52.32-3,.47-4.53h0c.3-2.7.6-5.48.79-8.21a30.14,30.14,0,0,1,.41-3.15l.15-1a.66.66,0,0,0-.53-.76.64.64,0,0,0-.74.55c-.06.33-.11.64-.16,1a32.85,32.85,0,0,0-.42,3.27c-.19,2.71-.49,5.48-.78,8.16v0c-.15,1.41-.32,3-.48,4.55-.82,8.5-1.52,16.23-1.72,24.78a1.32,1.32,0,0,0,1.16,1.36l1.15.12c4.44.46,9.48,1,14.08,3l2.5,1.08c1.5.65,3,1.38,4.51,2.08,2.14,1,4.36,2.07,6.5,2.89a.57.57,0,0,0,.22,0,.47.47,0,0,0,.24-.05,97.45,97.45,0,0,1,15.21-5.05l.08,0c.68-.14,1.37-.28,2.06-.44A77.91,77.91,0,0,1,132,242.8c1.89-.17,4.85-.24,6.43-.26h.16a1.31,1.31,0,0,0,1.18-1.12c.09-.56.85-5.55,1-7.7.33-4.11.62-7.82,1.06-11.59.11-.93.27-2.51.48-4.42.65-5.9,1.7-15.76,2.27-18.54.11-.55.26-1.37.46-2.44A.67.67,0,0,0,144.56,195.94Z"/></g></g></g></g></g></svg>